<mxfile host="app.diagrams.net" modified="2024-01-04T08:52:17.501Z" agent="Mozilla/5.0 (Windows NT 10.0; Win64; x64) AppleWebKit/537.36 (KHTML, like Gecko) Chrome/120.0.0.0 Safari/537.36" etag="dPne_tyWOzTWLrouFUrf" version="22.1.16" type="github">
  <diagram name="페이지-1" id="hlFzbcgqfIu_xxlJjmdt">
    <mxGraphModel dx="1704" dy="984" grid="1" gridSize="10" guides="1" tooltips="1" connect="1" arrows="1" fold="1" page="1" pageScale="1" pageWidth="1390" pageHeight="980" math="0" shadow="0">
      <root>
        <mxCell id="0" />
        <mxCell id="1" parent="0" />
        <mxCell id="aXlRqX0T5P-syf5OGsd7-1" value="교수" style="rounded=0;whiteSpace=wrap;html=1;fillColor=#647687;fontColor=#ffffff;strokeColor=#314354;" vertex="1" parent="1">
          <mxGeometry x="240" y="178" width="120" height="60" as="geometry" />
        </mxCell>
        <mxCell id="aXlRqX0T5P-syf5OGsd7-2" value="학과" style="rounded=0;whiteSpace=wrap;html=1;fillColor=#647687;fontColor=#ffffff;strokeColor=#314354;" vertex="1" parent="1">
          <mxGeometry x="1001" y="179" width="120" height="60" as="geometry" />
        </mxCell>
        <mxCell id="aXlRqX0T5P-syf5OGsd7-3" value="과목" style="rounded=0;whiteSpace=wrap;html=1;fillColor=#647687;fontColor=#ffffff;strokeColor=#314354;" vertex="1" parent="1">
          <mxGeometry x="250" y="654" width="120" height="60" as="geometry" />
        </mxCell>
        <mxCell id="aXlRqX0T5P-syf5OGsd7-4" value="학생" style="rounded=0;whiteSpace=wrap;html=1;fillColor=#647687;fontColor=#ffffff;strokeColor=#314354;" vertex="1" parent="1">
          <mxGeometry x="1001" y="659" width="120" height="60" as="geometry" />
        </mxCell>
        <mxCell id="aXlRqX0T5P-syf5OGsd7-5" value="강의" style="rhombus;whiteSpace=wrap;html=1;fillColor=#6d8764;fontColor=#ffffff;strokeColor=#3A5431;" vertex="1" parent="1">
          <mxGeometry x="240" y="405" width="120" height="70" as="geometry" />
        </mxCell>
        <mxCell id="aXlRqX0T5P-syf5OGsd7-6" value="소속" style="rhombus;whiteSpace=wrap;html=1;fillColor=#6d8764;fontColor=#ffffff;strokeColor=#3A5431;" vertex="1" parent="1">
          <mxGeometry x="620" y="169" width="120" height="70" as="geometry" />
        </mxCell>
        <mxCell id="aXlRqX0T5P-syf5OGsd7-7" value="소속" style="rhombus;whiteSpace=wrap;html=1;fillColor=#6d8764;fontColor=#ffffff;strokeColor=#3A5431;" vertex="1" parent="1">
          <mxGeometry x="1001" y="405" width="120" height="70" as="geometry" />
        </mxCell>
        <mxCell id="aXlRqX0T5P-syf5OGsd7-8" value="수강" style="rhombus;whiteSpace=wrap;html=1;fillColor=#6d8764;fontColor=#ffffff;strokeColor=#3A5431;" vertex="1" parent="1">
          <mxGeometry x="620" y="649" width="120" height="70" as="geometry" />
        </mxCell>
        <mxCell id="aXlRqX0T5P-syf5OGsd7-9" value="&lt;u&gt;교수코드&lt;/u&gt;" style="ellipse;whiteSpace=wrap;html=1;" vertex="1" parent="1">
          <mxGeometry x="30" y="70" width="120" height="80" as="geometry" />
        </mxCell>
        <mxCell id="aXlRqX0T5P-syf5OGsd7-10" value="교수이름" style="ellipse;whiteSpace=wrap;html=1;" vertex="1" parent="1">
          <mxGeometry x="30" y="210" width="120" height="80" as="geometry" />
        </mxCell>
        <mxCell id="aXlRqX0T5P-syf5OGsd7-11" value="&lt;u&gt;과목코드&lt;/u&gt;" style="ellipse;whiteSpace=wrap;html=1;" vertex="1" parent="1">
          <mxGeometry x="50" y="510" width="120" height="80" as="geometry" />
        </mxCell>
        <mxCell id="aXlRqX0T5P-syf5OGsd7-12" value="과목명" style="ellipse;whiteSpace=wrap;html=1;" vertex="1" parent="1">
          <mxGeometry x="50" y="620" width="120" height="80" as="geometry" />
        </mxCell>
        <mxCell id="aXlRqX0T5P-syf5OGsd7-13" value="종료일" style="ellipse;whiteSpace=wrap;html=1;" vertex="1" parent="1">
          <mxGeometry x="80" y="740" width="120" height="80" as="geometry" />
        </mxCell>
        <mxCell id="aXlRqX0T5P-syf5OGsd7-14" value="시작일" style="ellipse;whiteSpace=wrap;html=1;" vertex="1" parent="1">
          <mxGeometry x="210" y="830" width="120" height="80" as="geometry" />
        </mxCell>
        <mxCell id="aXlRqX0T5P-syf5OGsd7-15" value="&lt;u&gt;학번&lt;/u&gt;" style="ellipse;whiteSpace=wrap;html=1;" vertex="1" parent="1">
          <mxGeometry x="1180" y="540" width="120" height="80" as="geometry" />
        </mxCell>
        <mxCell id="aXlRqX0T5P-syf5OGsd7-16" value="이름" style="ellipse;whiteSpace=wrap;html=1;" vertex="1" parent="1">
          <mxGeometry x="1180" y="680" width="120" height="80" as="geometry" />
        </mxCell>
        <mxCell id="aXlRqX0T5P-syf5OGsd7-17" value="키" style="ellipse;whiteSpace=wrap;html=1;" vertex="1" parent="1">
          <mxGeometry x="1180" y="810" width="120" height="80" as="geometry" />
        </mxCell>
        <mxCell id="aXlRqX0T5P-syf5OGsd7-18" value="&lt;u&gt;학과코드&lt;/u&gt;" style="ellipse;whiteSpace=wrap;html=1;" vertex="1" parent="1">
          <mxGeometry x="1180" y="80" width="120" height="80" as="geometry" />
        </mxCell>
        <mxCell id="aXlRqX0T5P-syf5OGsd7-19" value="학과명" style="ellipse;whiteSpace=wrap;html=1;" vertex="1" parent="1">
          <mxGeometry x="1180" y="220" width="120" height="80" as="geometry" />
        </mxCell>
        <mxCell id="aXlRqX0T5P-syf5OGsd7-20" value="" style="endArrow=none;html=1;rounded=0;entryX=0.5;entryY=0;entryDx=0;entryDy=0;exitX=0.5;exitY=1;exitDx=0;exitDy=0;" edge="1" parent="1" source="aXlRqX0T5P-syf5OGsd7-1" target="aXlRqX0T5P-syf5OGsd7-5">
          <mxGeometry relative="1" as="geometry">
            <mxPoint x="270" y="310" as="sourcePoint" />
            <mxPoint x="430" y="310" as="targetPoint" />
          </mxGeometry>
        </mxCell>
        <mxCell id="aXlRqX0T5P-syf5OGsd7-21" value="1" style="resizable=0;html=1;whiteSpace=wrap;align=right;verticalAlign=bottom;" connectable="0" vertex="1" parent="aXlRqX0T5P-syf5OGsd7-20">
          <mxGeometry x="1" relative="1" as="geometry" />
        </mxCell>
        <mxCell id="aXlRqX0T5P-syf5OGsd7-22" value="" style="endArrow=none;html=1;rounded=0;entryX=0.5;entryY=1;entryDx=0;entryDy=0;exitX=0.5;exitY=0;exitDx=0;exitDy=0;" edge="1" parent="1" source="aXlRqX0T5P-syf5OGsd7-3" target="aXlRqX0T5P-syf5OGsd7-5">
          <mxGeometry relative="1" as="geometry">
            <mxPoint x="220" y="560" as="sourcePoint" />
            <mxPoint x="380" y="560" as="targetPoint" />
          </mxGeometry>
        </mxCell>
        <mxCell id="aXlRqX0T5P-syf5OGsd7-23" value="N" style="resizable=0;html=1;whiteSpace=wrap;align=right;verticalAlign=bottom;" connectable="0" vertex="1" parent="aXlRqX0T5P-syf5OGsd7-22">
          <mxGeometry x="1" relative="1" as="geometry">
            <mxPoint x="-10" y="15" as="offset" />
          </mxGeometry>
        </mxCell>
        <mxCell id="aXlRqX0T5P-syf5OGsd7-24" value="" style="endArrow=none;html=1;rounded=0;entryX=1;entryY=0.5;entryDx=0;entryDy=0;exitX=0;exitY=0.5;exitDx=0;exitDy=0;" edge="1" parent="1" source="aXlRqX0T5P-syf5OGsd7-8" target="aXlRqX0T5P-syf5OGsd7-3">
          <mxGeometry relative="1" as="geometry">
            <mxPoint x="590" y="510" as="sourcePoint" />
            <mxPoint x="750" y="510" as="targetPoint" />
          </mxGeometry>
        </mxCell>
        <mxCell id="aXlRqX0T5P-syf5OGsd7-25" value="1" style="resizable=0;html=1;whiteSpace=wrap;align=right;verticalAlign=bottom;" connectable="0" vertex="1" parent="aXlRqX0T5P-syf5OGsd7-24">
          <mxGeometry x="1" relative="1" as="geometry" />
        </mxCell>
        <mxCell id="aXlRqX0T5P-syf5OGsd7-26" value="" style="endArrow=none;html=1;rounded=0;entryX=1;entryY=0.5;entryDx=0;entryDy=0;exitX=-0.002;exitY=0.375;exitDx=0;exitDy=0;exitPerimeter=0;" edge="1" parent="1" source="aXlRqX0T5P-syf5OGsd7-4" target="aXlRqX0T5P-syf5OGsd7-8">
          <mxGeometry relative="1" as="geometry">
            <mxPoint x="590" y="510" as="sourcePoint" />
            <mxPoint x="750" y="510" as="targetPoint" />
          </mxGeometry>
        </mxCell>
        <mxCell id="aXlRqX0T5P-syf5OGsd7-27" value="N" style="resizable=0;html=1;whiteSpace=wrap;align=right;verticalAlign=bottom;" connectable="0" vertex="1" parent="aXlRqX0T5P-syf5OGsd7-26">
          <mxGeometry x="1" relative="1" as="geometry" />
        </mxCell>
        <mxCell id="aXlRqX0T5P-syf5OGsd7-28" value="1" style="text;html=1;align=center;verticalAlign=middle;resizable=0;points=[];autosize=1;strokeColor=none;fillColor=none;" vertex="1" parent="1">
          <mxGeometry x="970" y="649" width="30" height="30" as="geometry" />
        </mxCell>
        <mxCell id="aXlRqX0T5P-syf5OGsd7-29" value="" style="endArrow=none;html=1;rounded=0;entryX=0.5;entryY=1;entryDx=0;entryDy=0;exitX=0.5;exitY=0;exitDx=0;exitDy=0;" edge="1" parent="1" source="aXlRqX0T5P-syf5OGsd7-4" target="aXlRqX0T5P-syf5OGsd7-7">
          <mxGeometry relative="1" as="geometry">
            <mxPoint x="910" y="549.47" as="sourcePoint" />
            <mxPoint x="1070" y="549.47" as="targetPoint" />
          </mxGeometry>
        </mxCell>
        <mxCell id="aXlRqX0T5P-syf5OGsd7-30" value="N" style="resizable=0;html=1;whiteSpace=wrap;align=right;verticalAlign=bottom;" connectable="0" vertex="1" parent="aXlRqX0T5P-syf5OGsd7-29">
          <mxGeometry x="1" relative="1" as="geometry">
            <mxPoint x="-4" y="15" as="offset" />
          </mxGeometry>
        </mxCell>
        <mxCell id="aXlRqX0T5P-syf5OGsd7-31" value="" style="endArrow=none;html=1;rounded=0;exitX=0.5;exitY=1;exitDx=0;exitDy=0;entryX=0.5;entryY=0;entryDx=0;entryDy=0;" edge="1" parent="1" source="aXlRqX0T5P-syf5OGsd7-2" target="aXlRqX0T5P-syf5OGsd7-7">
          <mxGeometry relative="1" as="geometry">
            <mxPoint x="961" y="320" as="sourcePoint" />
            <mxPoint x="1121" y="320" as="targetPoint" />
          </mxGeometry>
        </mxCell>
        <mxCell id="aXlRqX0T5P-syf5OGsd7-32" value="1" style="resizable=0;html=1;whiteSpace=wrap;align=right;verticalAlign=bottom;" connectable="0" vertex="1" parent="aXlRqX0T5P-syf5OGsd7-31">
          <mxGeometry x="1" relative="1" as="geometry" />
        </mxCell>
        <mxCell id="aXlRqX0T5P-syf5OGsd7-33" value="" style="endArrow=none;html=1;rounded=0;entryX=1;entryY=0.5;entryDx=0;entryDy=0;exitX=0;exitY=0.5;exitDx=0;exitDy=0;" edge="1" parent="1" source="aXlRqX0T5P-syf5OGsd7-2" target="aXlRqX0T5P-syf5OGsd7-6">
          <mxGeometry relative="1" as="geometry">
            <mxPoint x="780" y="210" as="sourcePoint" />
            <mxPoint x="940" y="210" as="targetPoint" />
          </mxGeometry>
        </mxCell>
        <mxCell id="aXlRqX0T5P-syf5OGsd7-34" value="1" style="resizable=0;html=1;whiteSpace=wrap;align=right;verticalAlign=bottom;" connectable="0" vertex="1" parent="aXlRqX0T5P-syf5OGsd7-33">
          <mxGeometry x="1" relative="1" as="geometry" />
        </mxCell>
        <mxCell id="aXlRqX0T5P-syf5OGsd7-39" value="" style="endArrow=none;html=1;rounded=0;exitX=1;exitY=0.25;exitDx=0;exitDy=0;entryX=0;entryY=0.5;entryDx=0;entryDy=0;" edge="1" parent="1" source="aXlRqX0T5P-syf5OGsd7-1" target="aXlRqX0T5P-syf5OGsd7-6">
          <mxGeometry relative="1" as="geometry">
            <mxPoint x="390" y="200" as="sourcePoint" />
            <mxPoint x="550" y="200" as="targetPoint" />
          </mxGeometry>
        </mxCell>
        <mxCell id="aXlRqX0T5P-syf5OGsd7-40" value="N" style="resizable=0;html=1;whiteSpace=wrap;align=right;verticalAlign=bottom;" connectable="0" vertex="1" parent="aXlRqX0T5P-syf5OGsd7-39">
          <mxGeometry x="1" relative="1" as="geometry" />
        </mxCell>
        <mxCell id="aXlRqX0T5P-syf5OGsd7-41" value="" style="endArrow=none;html=1;rounded=0;entryX=0;entryY=0.5;entryDx=0;entryDy=0;exitX=1;exitY=0.5;exitDx=0;exitDy=0;" edge="1" parent="1" source="aXlRqX0T5P-syf5OGsd7-9" target="aXlRqX0T5P-syf5OGsd7-1">
          <mxGeometry relative="1" as="geometry">
            <mxPoint x="170" y="110" as="sourcePoint" />
            <mxPoint x="310" y="109.47000000000003" as="targetPoint" />
          </mxGeometry>
        </mxCell>
        <mxCell id="aXlRqX0T5P-syf5OGsd7-42" value="" style="endArrow=none;html=1;rounded=0;entryX=0;entryY=0.5;entryDx=0;entryDy=0;exitX=1;exitY=0.5;exitDx=0;exitDy=0;" edge="1" parent="1" source="aXlRqX0T5P-syf5OGsd7-10" target="aXlRqX0T5P-syf5OGsd7-1">
          <mxGeometry relative="1" as="geometry">
            <mxPoint x="70" y="310" as="sourcePoint" />
            <mxPoint x="230" y="310" as="targetPoint" />
          </mxGeometry>
        </mxCell>
        <mxCell id="aXlRqX0T5P-syf5OGsd7-43" value="" style="endArrow=none;html=1;rounded=0;entryX=0;entryY=0.5;entryDx=0;entryDy=0;exitX=1.02;exitY=0.604;exitDx=0;exitDy=0;exitPerimeter=0;" edge="1" parent="1" source="aXlRqX0T5P-syf5OGsd7-11" target="aXlRqX0T5P-syf5OGsd7-3">
          <mxGeometry relative="1" as="geometry">
            <mxPoint x="130" y="610" as="sourcePoint" />
            <mxPoint x="290" y="610" as="targetPoint" />
          </mxGeometry>
        </mxCell>
        <mxCell id="aXlRqX0T5P-syf5OGsd7-44" value="" style="endArrow=none;html=1;rounded=0;entryX=0;entryY=0.5;entryDx=0;entryDy=0;exitX=1;exitY=0.5;exitDx=0;exitDy=0;" edge="1" parent="1" source="aXlRqX0T5P-syf5OGsd7-12" target="aXlRqX0T5P-syf5OGsd7-3">
          <mxGeometry relative="1" as="geometry">
            <mxPoint x="40" y="710" as="sourcePoint" />
            <mxPoint x="200" y="710" as="targetPoint" />
          </mxGeometry>
        </mxCell>
        <mxCell id="aXlRqX0T5P-syf5OGsd7-45" value="" style="endArrow=none;html=1;rounded=0;exitX=0.998;exitY=0.255;exitDx=0;exitDy=0;exitPerimeter=0;entryX=0;entryY=0.5;entryDx=0;entryDy=0;" edge="1" parent="1" source="aXlRqX0T5P-syf5OGsd7-13" target="aXlRqX0T5P-syf5OGsd7-3">
          <mxGeometry relative="1" as="geometry">
            <mxPoint x="260" y="760" as="sourcePoint" />
            <mxPoint x="180" y="710" as="targetPoint" />
          </mxGeometry>
        </mxCell>
        <mxCell id="aXlRqX0T5P-syf5OGsd7-46" value="" style="endArrow=none;html=1;rounded=0;entryX=0.333;entryY=0;entryDx=0;entryDy=0;entryPerimeter=0;exitX=0;exitY=0.5;exitDx=0;exitDy=0;" edge="1" parent="1" source="aXlRqX0T5P-syf5OGsd7-3" target="aXlRqX0T5P-syf5OGsd7-14">
          <mxGeometry relative="1" as="geometry">
            <mxPoint x="230" y="770" as="sourcePoint" />
            <mxPoint x="390" y="770" as="targetPoint" />
          </mxGeometry>
        </mxCell>
        <mxCell id="aXlRqX0T5P-syf5OGsd7-47" value="" style="endArrow=none;html=1;rounded=0;entryX=0;entryY=0.5;entryDx=0;entryDy=0;exitX=1;exitY=0.5;exitDx=0;exitDy=0;" edge="1" parent="1" source="aXlRqX0T5P-syf5OGsd7-2" target="aXlRqX0T5P-syf5OGsd7-18">
          <mxGeometry relative="1" as="geometry">
            <mxPoint x="1000" y="120" as="sourcePoint" />
            <mxPoint x="1160" y="120" as="targetPoint" />
          </mxGeometry>
        </mxCell>
        <mxCell id="aXlRqX0T5P-syf5OGsd7-48" value="" style="endArrow=none;html=1;rounded=0;entryX=0;entryY=0.5;entryDx=0;entryDy=0;exitX=1;exitY=0.5;exitDx=0;exitDy=0;" edge="1" parent="1" source="aXlRqX0T5P-syf5OGsd7-2" target="aXlRqX0T5P-syf5OGsd7-19">
          <mxGeometry relative="1" as="geometry">
            <mxPoint x="590" y="510" as="sourcePoint" />
            <mxPoint x="750" y="510" as="targetPoint" />
          </mxGeometry>
        </mxCell>
        <mxCell id="aXlRqX0T5P-syf5OGsd7-49" value="" style="endArrow=none;html=1;rounded=0;entryX=0;entryY=0.5;entryDx=0;entryDy=0;exitX=1;exitY=0.5;exitDx=0;exitDy=0;" edge="1" parent="1" source="aXlRqX0T5P-syf5OGsd7-4" target="aXlRqX0T5P-syf5OGsd7-15">
          <mxGeometry relative="1" as="geometry">
            <mxPoint x="590" y="510" as="sourcePoint" />
            <mxPoint x="750" y="510" as="targetPoint" />
          </mxGeometry>
        </mxCell>
        <mxCell id="aXlRqX0T5P-syf5OGsd7-50" value="" style="endArrow=none;html=1;rounded=0;entryX=0;entryY=0.5;entryDx=0;entryDy=0;exitX=1;exitY=0.5;exitDx=0;exitDy=0;" edge="1" parent="1" source="aXlRqX0T5P-syf5OGsd7-4" target="aXlRqX0T5P-syf5OGsd7-16">
          <mxGeometry relative="1" as="geometry">
            <mxPoint x="590" y="510" as="sourcePoint" />
            <mxPoint x="750" y="510" as="targetPoint" />
          </mxGeometry>
        </mxCell>
        <mxCell id="aXlRqX0T5P-syf5OGsd7-51" value="" style="endArrow=none;html=1;rounded=0;entryX=-0.011;entryY=0.38;entryDx=0;entryDy=0;entryPerimeter=0;exitX=1;exitY=0.5;exitDx=0;exitDy=0;" edge="1" parent="1" source="aXlRqX0T5P-syf5OGsd7-4" target="aXlRqX0T5P-syf5OGsd7-17">
          <mxGeometry relative="1" as="geometry">
            <mxPoint x="590" y="510" as="sourcePoint" />
            <mxPoint x="750" y="510" as="targetPoint" />
          </mxGeometry>
        </mxCell>
      </root>
    </mxGraphModel>
  </diagram>
</mxfile>
